<svg width="24" height="24" viewBox="0 0 24 24" fill="none" xmlns="http://www.w3.org/2000/svg">
<g clip-path="url(#clip0_132_237)">
<path d="M21.9 18.7533L21.6733 18.5533C21.0303 17.9804 20.4674 17.3234 20 16.6C19.4895 15.6017 19.1835 14.5115 19.1 13.3933V10.1C19.1044 8.34373 18.4673 6.6463 17.3085 5.32663C16.1496 4.00697 14.5488 3.15589 12.8067 2.93332V2.07332C12.8067 1.83728 12.7129 1.6109 12.546 1.44399C12.3791 1.27709 12.1527 1.18332 11.9167 1.18332C11.6806 1.18332 11.4542 1.27709 11.2873 1.44399C11.1204 1.6109 11.0267 1.83728 11.0267 2.07332V2.94665C9.30016 3.18527 7.71864 4.04149 6.57501 5.35672C5.43138 6.67196 4.80315 8.35708 4.80666 10.1V13.3933C4.72316 14.5115 4.41718 15.6017 3.90666 16.6C3.44725 17.3216 2.89346 17.9785 2.25999 18.5533L2.03333 18.7533V20.6333H21.9V18.7533Z" fill="#857AAC"/>
<path d="M10.2134 21.3333C10.2718 21.7559 10.4812 22.1431 10.8029 22.4233C11.1246 22.7035 11.5368 22.8579 11.9634 22.8579C12.39 22.8579 12.8022 22.7035 13.1239 22.4233C13.4455 22.1431 13.6549 21.7559 13.7134 21.3333H10.2134Z" fill="#857AAC"/>
</g>
<defs>
<clipPath id="clip0_132_237">
<rect width="24" height="24" fill="white"/>
</clipPath>
</defs>
</svg>
