<svg width="20" height="20" viewBox="0 0 20 20" fill="none" xmlns="http://www.w3.org/2000/svg">
<path d="M19.9 17.7533L19.6733 17.5533C19.0303 16.9804 18.4674 16.3234 18 15.6C17.4895 14.6017 17.1835 13.5115 17.1 12.3933V9.09999C17.1044 7.34373 16.4673 5.6463 15.3085 4.32663C14.1496 3.00697 12.5488 2.15589 10.8067 1.93332V1.07332C10.8067 0.837276 10.7129 0.610902 10.546 0.443994C10.3791 0.277087 10.1527 0.183319 9.91666 0.183319C9.68062 0.183319 9.45424 0.277087 9.28733 0.443994C9.12043 0.610902 9.02666 0.837276 9.02666 1.07332V1.94665C7.30016 2.18527 5.71864 3.04149 4.57501 4.35672C3.43138 5.67196 2.80315 7.35708 2.80666 9.09999V12.3933C2.72316 13.5115 2.41718 14.6017 1.90666 15.6C1.44725 16.3216 0.893455 16.9785 0.259992 17.5533L0.0333252 17.7533V19.6333H19.9V17.7533Z" fill="#857AAC"/>
</svg>
